<svg width="20" height="12" viewBox="0 0 20 12" fill="none" xmlns="http://www.w3.org/2000/svg">
<path d="M6.2501 0.75V4.5H7.5001V0.75H6.2501ZM3.7501 2V5.75H5.0001V2H3.7501ZM8.7501 2V5.75H10.0001V2H8.7501ZM20.0001 5.75C15.9674 5.75 13.3677 6.83909 13.003 7H0.625104C0.526035 6.99995 0.428374 7.02346 0.340173 7.06857C0.251972 7.11369 0.175759 7.17912 0.117816 7.25948C0.0598727 7.33984 0.0218601 7.43281 0.00691205 7.53075C-0.00803595 7.62868 0.000508831 7.72877 0.0318419 7.82275L0.996197 10.7183C1.25059 11.4833 1.97201 12 2.77598 12H10.9742C11.7788 12 12.4999 11.4824 12.754 10.7183L13.628 8.09619C14.1811 7.86239 16.4351 7 20.0001 7V5.75ZM1.4918 8.25H12.2584L11.5675 10.3228C11.4816 10.5811 11.2471 10.75 10.9742 10.75H2.77598C2.50496 10.75 2.26833 10.5802 2.18272 10.3228L1.4918 8.25Z" fill="#1C0F13" fill-opacity="0.45"/>
</svg>
