<svg width="17" height="15" viewBox="0 0 17 15" fill="none" xmlns="http://www.w3.org/2000/svg">
<path d="M5.06055 0.0605469L2.375 2.74121L1.4082 1.7793L0.529297 2.6582L2.375 4.50879L5.93945 0.939453L5.06055 0.0605469ZM8 1.75V3H16.75V1.75H8ZM5.06055 5.06055L2.375 7.74121L1.4082 6.7793L0.529297 7.6582L2.375 9.50879L5.93945 5.93945L5.06055 5.06055ZM8 6.75V8H16.75V6.75H8ZM5.06055 10.0605L2.375 12.7412L1.4082 11.7744L0.529297 12.6631L2.375 14.5088L5.93945 10.9443L5.06055 10.0605ZM8 11.75V13H16.75V11.75H8Z" fill="white"/>
</svg>
