<svg width="18" height="18" viewBox="0 0 18 18" fill="none" xmlns="http://www.w3.org/2000/svg">
<path d="M2.00781 0.494141L1.11914 1.38281L1.56348 1.82227L2.44727 2.70605L2.88672 3.15039L3.77539 2.26172L3.33105 1.82227L2.44727 0.938476L2.00781 0.494141ZM15.9922 0.494141L15.5527 0.938476L14.2295 2.26172L15.1133 3.15039L15.5527 2.70605L16.876 1.38281L15.9922 0.494141ZM9 1.5C6.24609 1.5 4 3.74609 4 6.5C4 8.22852 4.75684 9.22461 5.36719 10.0742C5.98242 10.9189 6.5 11.6367 6.5 13.375V14.625C6.5 15.4355 7.03223 16.1289 7.75977 16.3828C7.75488 16.4219 7.75 16.4609 7.75 16.5C7.75 17.1885 8.31152 17.75 9 17.75C9.68848 17.75 10.25 17.1885 10.25 16.5C10.25 16.4609 10.25 16.4219 10.2451 16.3828C10.9727 16.124 11.5 15.4355 11.5 14.625V13.375C11.5 11.6367 12.0176 10.9189 12.6328 10.0742C13.2432 9.22461 14 8.22852 14 6.5C14 3.74609 11.7539 1.5 9 1.5ZM9 2.75C11.0801 2.75 12.75 4.41992 12.75 6.5C12.75 7.89648 12.2568 8.46289 11.6172 9.33203C11.0654 10.0986 10.5186 11.1777 10.3672 12.75H7.63281C7.48144 11.1777 6.93457 10.0986 6.38281 9.33203C5.74316 8.46289 5.25 7.89648 5.25 6.5C5.25 4.41992 6.91992 2.75 9 2.75ZM0.25 6.5V7.75H2.75V6.5H0.25ZM15.25 6.5V7.75H17.75V6.5H15.25ZM2.88672 11.0996L2.44727 11.5439L1.56348 12.4277L1.11914 12.8672L2.00781 13.751L3.33105 12.4277L3.77539 11.9883L2.88672 11.0996ZM15.1133 11.0996L14.2295 11.9883L15.9922 13.751L16.876 12.8672L15.5527 11.5439L15.1133 11.0996ZM7.75 14H10.25V14.625C10.25 14.9766 9.97656 15.25 9.625 15.25H8.375C8.02344 15.25 7.75 14.9766 7.75 14.625V14Z" fill="#1C0F13" fill-opacity="0.45"/>
</svg>
