<svg width="21" height="21" viewBox="0 0 21 21" fill="none" xmlns="http://www.w3.org/2000/svg">
<path fill-rule="evenodd" clip-rule="evenodd" d="M9.739 1.5C5.18873 1.5 1.5 5.18873 1.5 9.739C1.5 14.2893 5.18873 17.978 9.739 17.978C14.2893 17.978 17.978 14.2893 17.978 9.739C17.978 5.18873 14.2893 1.5 9.739 1.5ZM0 9.739C0 4.3603 4.3603 0 9.739 0C15.1177 0 19.478 4.3603 19.478 9.739C19.478 15.1177 15.1177 19.478 9.739 19.478C4.3603 19.478 0 15.1177 0 9.739Z" fill="black"/>
<path fill-rule="evenodd" clip-rule="evenodd" d="M15.459 15.9273C15.7515 15.6341 16.2264 15.6335 16.5197 15.926L20.0437 19.441C20.3369 19.7335 20.3375 20.2084 20.045 20.5017C19.7525 20.7949 19.2776 20.7955 18.9843 20.503L15.4603 16.988C15.1671 16.6955 15.1665 16.2206 15.459 15.9273Z" fill="black"/>
</svg>
