<svg width="16" height="16" viewBox="0 0 16 16" fill="none" xmlns="http://www.w3.org/2000/svg">
<g clip-path="url(#clip0)">
<path d="M15 3.99999H1C0.866588 3.99197 0.732991 4.01235 0.608031 4.05976C0.483071 4.10718 0.369591 4.18057 0.275083 4.27507C0.180575 4.36958 0.107189 4.48306 0.0597714 4.60802C0.0123535 4.73298 -0.00801822 4.86658 1.42073e-06 4.99999V15C-0.00801822 15.1334 0.0123535 15.267 0.0597714 15.392C0.107189 15.5169 0.180575 15.6304 0.275083 15.7249C0.369591 15.8194 0.483071 15.8928 0.608031 15.9402C0.732991 15.9876 0.866588 16.008 1 16H15C15.1334 16.008 15.267 15.9876 15.392 15.9402C15.5169 15.8928 15.6304 15.8194 15.7249 15.7249C15.8194 15.6304 15.8928 15.5169 15.9402 15.392C15.9876 15.267 16.008 15.1334 16 15V4.99999C16.008 4.86658 15.9876 4.73298 15.9402 4.60802C15.8928 4.48306 15.8194 4.36958 15.7249 4.27507C15.6304 4.18057 15.5169 4.10718 15.392 4.05976C15.267 4.01235 15.1334 3.99197 15 3.99999ZM6 13V6.99999L11 9.99999L6 13Z" fill="#5956E9"/>
<path d="M3 0H13C13.2652 0 13.5196 0.105357 13.7071 0.292893C13.8946 0.48043 14 0.734784 14 1V2H2V1C2 0.734784 2.10536 0.48043 2.29289 0.292893C2.48043 0.105357 2.73478 0 3 0V0Z" fill="#FAB8C4"/>
</g>
<defs>
<clipPath id="clip0">
<rect width="16" height="16" fill="white"/>
</clipPath>
</defs>
</svg>
