<svg width="18" height="18" viewBox="0 0 18 18" fill="none" xmlns="http://www.w3.org/2000/svg">
<path d="M7.21289 0.25L6.91016 1.86133C5.74805 2.20312 4.71289 2.80859 3.86328 3.61914L2.31543 3.07715L0.52832 6.17285L1.76367 7.23242C1.62207 7.80371 1.5 8.38477 1.5 9C1.5 9.61524 1.62207 10.1963 1.76367 10.7676L0.52832 11.8271L2.31543 14.9229L3.8584 14.376C4.71289 15.1963 5.74805 15.7969 6.91016 16.1436L7.21289 17.75H10.7871L11.0898 16.1436C12.252 15.7969 13.2871 15.1914 14.1367 14.376L15.6797 14.9229L17.4717 11.8271L16.2314 10.7676C16.373 10.1963 16.5 9.61524 16.5 9C16.5 8.38477 16.3779 7.80371 16.2363 7.23242L17.4717 6.17285L15.6846 3.07715L14.1416 3.61914C13.2871 2.80371 12.252 2.20312 11.0898 1.86133L10.7871 0.25H7.21289ZM8.24805 1.5H9.75195L9.99609 2.81836L10.3965 2.91602C11.6367 3.19922 12.7305 3.84863 13.5703 4.74707L13.8486 5.04492L15.1182 4.60059L15.8701 5.89941L14.8545 6.77344L14.9766 7.16406C15.1523 7.74023 15.25 8.36035 15.25 9C15.25 9.63965 15.1523 10.2549 14.9766 10.8359L14.8545 11.2266L15.8701 12.1006L15.1182 13.3994L13.8486 12.9502L13.5703 13.2529C12.7305 14.1514 11.6367 14.8008 10.3965 15.0889L9.99609 15.1768L9.75195 16.5H8.24805L8.00391 15.1768L7.60352 15.0889C6.36328 14.8008 5.26953 14.1514 4.42969 13.2529L4.14649 12.9502L2.87695 13.3994L2.12988 12.1006L3.14551 11.2266L3.02344 10.8359C2.84766 10.2598 2.75 9.63965 2.75 9C2.75 8.36035 2.84766 7.74023 3.02344 7.16406L3.14551 6.77344L2.12988 5.89941L2.87695 4.60059L4.15137 5.04492L4.42969 4.74707C5.26953 3.84863 6.36328 3.19922 7.60352 2.91602L8.00391 2.81836L8.24805 1.5ZM9 5.25C6.93457 5.25 5.25 6.93457 5.25 9C5.25 11.0654 6.93457 12.75 9 12.75C11.0654 12.75 12.75 11.0654 12.75 9C12.75 6.93457 11.0654 5.25 9 5.25ZM9 6.5C10.3867 6.5 11.5 7.61328 11.5 9C11.5 10.3867 10.3867 11.5 9 11.5C7.61328 11.5 6.5 10.3867 6.5 9C6.5 7.61328 7.61328 6.5 9 6.5Z" fill="#1C0F13" fill-opacity="0.45"/>
</svg>
