<svg width="14" height="12" viewBox="0 0 14 12" fill="none" xmlns="http://www.w3.org/2000/svg">
<path d="M6.125 0.75C4.96259 0.75 3.88497 1.12897 3.01465 1.77026H3.01294C1.7163 2.72628 0.875 4.26775 0.875 6C0.875 8.89462 3.23038 11.25 6.125 11.25C7.94922 11.25 9.55869 10.3131 10.5 8.89673V11.25H11.375V5.97607C12.3761 5.76623 13.125 4.84878 13.125 3.77148C13.125 3.15715 12.9079 2.47134 12.5491 1.88647C12.1903 1.30161 11.6584 0.772217 10.9392 0.772217C10.2323 0.772217 9.707 1.28467 9.34814 1.85742C8.45789 1.16397 7.33784 0.75 6.125 0.75ZM6.125 1.625C7.21086 1.625 8.19054 2.02963 8.95508 2.68286C8.82731 3.04799 8.75031 3.42092 8.75 3.77148C8.74906 4.8486 9.49995 5.7646 10.5 5.97607V6C10.5 8.42188 8.54688 10.375 6.125 10.375C3.70312 10.375 1.75 8.42188 1.75 6C1.75 4.55075 2.45085 3.27185 3.53247 2.47437C4.25815 1.93966 5.15241 1.625 6.125 1.625ZM10.9392 1.64722C11.1877 1.64722 11.5284 1.89816 11.8022 2.34448C12.0761 2.79081 12.25 3.38482 12.25 3.77148C12.25 4.5443 11.6592 5.14787 10.9375 5.14722C10.2148 5.14656 9.62432 4.54555 9.625 3.77319C9.62534 3.38646 9.79861 2.79087 10.0728 2.34448C10.3469 1.89809 10.6907 1.64722 10.9392 1.64722ZM5.69946 2.52905C5.67482 2.52926 5.65024 2.53154 5.62598 2.53589C5.04244 2.61982 4.50338 2.84611 4.05029 3.18018C3.186 3.81766 2.625 4.8462 2.625 6C2.625 7.92782 4.19718 9.5 6.125 9.5C7.10139 9.5 7.99051 9.0977 8.62524 8.44897C8.66656 8.40815 8.69934 8.3595 8.72166 8.30588C8.74399 8.25225 8.75541 8.19471 8.75526 8.13663C8.75512 8.07854 8.7434 8.02106 8.72081 7.96755C8.69822 7.91404 8.6652 7.86556 8.62367 7.82494C8.58215 7.78432 8.53295 7.75238 8.47895 7.73098C8.42495 7.70957 8.36723 7.69913 8.30915 7.70027C8.25108 7.70141 8.19381 7.7141 8.14069 7.7376C8.08757 7.7611 8.03966 7.79495 7.99976 7.83716C7.52324 8.32418 6.86186 8.625 6.125 8.625C4.67007 8.625 3.5 7.45493 3.5 6C3.5 5.12905 3.92037 4.3633 4.56982 3.88428C4.90948 3.63384 5.31056 3.4637 5.74902 3.40063C5.85895 3.3867 5.95949 3.33159 6.03036 3.24641C6.10123 3.16124 6.13714 3.05235 6.13085 2.94172C6.12456 2.8311 6.07654 2.72698 5.99647 2.65039C5.9164 2.5738 5.81026 2.53043 5.69946 2.52905Z" fill="#1C0F13"/>
</svg>
